<mxfile host="app.diagrams.net" modified="2020-10-20T22:18:42.091Z" agent="5.0 (Windows NT 10.0; Win64; x64) AppleWebKit/537.36 (KHTML, like Gecko) Chrome/86.0.4240.75 Safari/537.36" etag="YsQG2MyJnq6qybLhzTZD" version="13.8.0" type="github" pages="3">
  <diagram id="DcCoHq9MMb-QZ1dCFd5W" name="Page-3">
    <mxGraphModel dx="1422" dy="737" grid="0" gridSize="10" guides="1" tooltips="1" connect="1" arrows="1" fold="1" page="1" pageScale="1" pageWidth="700" pageHeight="1000" math="0" shadow="0">
      <root>
        <mxCell id="LJeS2vGAnbKSU5zuG8RX-0" />
        <mxCell id="LJeS2vGAnbKSU5zuG8RX-1" parent="LJeS2vGAnbKSU5zuG8RX-0" />
        <mxCell id="wgRFfTaITezEYwAnIegl-4" value="" style="rounded=1;whiteSpace=wrap;html=1;strokeColor=#666666;rotation=90;fillColor=#FFFFFF;strokeWidth=9;" vertex="1" parent="LJeS2vGAnbKSU5zuG8RX-1">
          <mxGeometry x="108" y="220.25" width="523.25" height="248.75" as="geometry" />
        </mxCell>
        <mxCell id="wgRFfTaITezEYwAnIegl-5" value="" style="whiteSpace=wrap;html=1;aspect=fixed;strokeWidth=1;fillColor=#FFFFFF;strokeColor=#E6E6E6;" vertex="1" parent="LJeS2vGAnbKSU5zuG8RX-1">
          <mxGeometry x="275.63" y="140" width="174" height="174" as="geometry" />
        </mxCell>
        <mxCell id="Ajv8my0e55107NLTBYaM-0" value="" style="whiteSpace=wrap;html=1;aspect=fixed;fillColor=#FFFFFF;strokeColor=#FFFFFF;" vertex="1" parent="LJeS2vGAnbKSU5zuG8RX-1">
          <mxGeometry x="310" y="166" width="140" height="140" as="geometry" />
        </mxCell>
        <mxCell id="Ajv8my0e55107NLTBYaM-1" value="" style="verticalLabelPosition=bottom;html=1;verticalAlign=top;align=center;strokeColor=none;shape=mxgraph.azure.user;fillColor=#FFCE9F;" vertex="1" parent="LJeS2vGAnbKSU5zuG8RX-1">
          <mxGeometry x="342.82" y="188" width="47.5" height="50" as="geometry" />
        </mxCell>
        <mxCell id="Ajv8my0e55107NLTBYaM-2" value="Edit Profile" style="text;html=1;strokeColor=none;fillColor=none;align=center;verticalAlign=middle;whiteSpace=wrap;rounded=0;" vertex="1" parent="LJeS2vGAnbKSU5zuG8RX-1">
          <mxGeometry x="336.75" y="155" width="68" height="20" as="geometry" />
        </mxCell>
        <mxCell id="Ajv8my0e55107NLTBYaM-3" value="" style="shape=image;html=1;verticalAlign=top;verticalLabelPosition=bottom;labelBackgroundColor=#ffffff;imageAspect=0;aspect=fixed;image=https://cdn4.iconfinder.com/data/icons/48-bubbles/48/16.Pen-128.png;strokeColor=#FF6666;fillColor=#FFCE9F;" vertex="1" parent="LJeS2vGAnbKSU5zuG8RX-1">
          <mxGeometry x="320.75" y="158" width="14" height="14" as="geometry" />
        </mxCell>
        <mxCell id="WxJ3B2599T6aqJ7ZR3nJ-0" value="" style="rounded=0;whiteSpace=wrap;html=1;fillColor=#666666;strokeColor=#666666;" vertex="1" parent="LJeS2vGAnbKSU5zuG8RX-1">
          <mxGeometry x="268" y="87" width="207" height="38" as="geometry" />
        </mxCell>
        <mxCell id="WxJ3B2599T6aqJ7ZR3nJ-1" value="" style="shape=mxgraph.cisco.buildings.telecommuter_house;html=1;pointerEvents=1;dashed=0;fillColor=#036897;strokeColor=#ffffff;strokeWidth=2;verticalLabelPosition=bottom;verticalAlign=top;align=center;outlineConnect=0;" vertex="1" parent="LJeS2vGAnbKSU5zuG8RX-1">
          <mxGeometry x="279" y="102" width="28" height="20" as="geometry" />
        </mxCell>
        <mxCell id="WxJ3B2599T6aqJ7ZR3nJ-2" value="&lt;font color=&quot;#ffffff&quot; style=&quot;font-size: 8px&quot;&gt;&lt;b&gt;Private Media&lt;/b&gt;&lt;/font&gt;" style="text;html=1;strokeColor=none;fillColor=none;align=center;verticalAlign=middle;whiteSpace=wrap;rounded=0;" vertex="1" parent="LJeS2vGAnbKSU5zuG8RX-1">
          <mxGeometry x="307" y="102" width="56" height="20" as="geometry" />
        </mxCell>
        <mxCell id="WxJ3B2599T6aqJ7ZR3nJ-3" value="" style="shape=image;html=1;verticalAlign=top;verticalLabelPosition=bottom;labelBackgroundColor=#ffffff;imageAspect=0;aspect=fixed;image=https://cdn4.iconfinder.com/data/icons/miu/24/common-logout-signout-exit-glyph-128.png;strokeColor=#FFFFFF;fillColor=#666666;" vertex="1" parent="LJeS2vGAnbKSU5zuG8RX-1">
          <mxGeometry x="414" y="104" width="16" height="16" as="geometry" />
        </mxCell>
        <mxCell id="WxJ3B2599T6aqJ7ZR3nJ-4" value="&lt;font color=&quot;#ffffff&quot; style=&quot;font-size: 9px&quot;&gt;&lt;b&gt;Logout&lt;/b&gt;&lt;/font&gt;" style="text;html=1;strokeColor=none;fillColor=none;align=center;verticalAlign=middle;whiteSpace=wrap;rounded=0;" vertex="1" parent="LJeS2vGAnbKSU5zuG8RX-1">
          <mxGeometry x="399" y="100" width="98" height="20" as="geometry" />
        </mxCell>
        <mxCell id="12MDwx4VJmUt7la8ImGG-0" value="" style="rounded=0;whiteSpace=wrap;html=1;fillColor=#FFFFFF;strokeColor=#666666;align=left;" vertex="1" parent="LJeS2vGAnbKSU5zuG8RX-1">
          <mxGeometry x="257.13" y="325" width="224.87" height="75" as="geometry" />
        </mxCell>
        <mxCell id="12MDwx4VJmUt7la8ImGG-1" value="&lt;font color=&quot;#ffffff&quot;&gt;Post&lt;/font&gt;" style="rounded=0;whiteSpace=wrap;html=1;strokeColor=#666666;fillColor=#666666;" vertex="1" parent="LJeS2vGAnbKSU5zuG8RX-1">
          <mxGeometry x="257.13" y="379" width="78" height="21" as="geometry" />
        </mxCell>
        <mxCell id="12MDwx4VJmUt7la8ImGG-8" value="" style="rounded=0;whiteSpace=wrap;html=1;strokeColor=#666666;fillColor=#FFFFFF;" vertex="1" parent="LJeS2vGAnbKSU5zuG8RX-1">
          <mxGeometry x="256.13" y="406" width="227" height="83" as="geometry" />
        </mxCell>
        <mxCell id="12MDwx4VJmUt7la8ImGG-9" value="&lt;font color=&quot;#b3b3b3&quot; style=&quot;font-size: 9px&quot;&gt;Username&lt;/font&gt;" style="text;html=1;strokeColor=none;fillColor=none;align=center;verticalAlign=middle;whiteSpace=wrap;rounded=0;" vertex="1" parent="LJeS2vGAnbKSU5zuG8RX-1">
          <mxGeometry x="264.13" y="407" width="55" height="20" as="geometry" />
        </mxCell>
        <mxCell id="12MDwx4VJmUt7la8ImGG-10" value="&lt;font color=&quot;#b3b3b3&quot; style=&quot;font-size: 9px&quot;&gt;Date&lt;/font&gt;" style="text;html=1;strokeColor=none;fillColor=none;align=center;verticalAlign=middle;whiteSpace=wrap;rounded=0;" vertex="1" parent="LJeS2vGAnbKSU5zuG8RX-1">
          <mxGeometry x="423.13" y="404" width="55" height="20" as="geometry" />
        </mxCell>
        <mxCell id="12MDwx4VJmUt7la8ImGG-11" value="&lt;i&gt;&lt;b&gt;&lt;font style=&quot;font-size: 10px&quot;&gt;This is a new post&lt;/font&gt;&lt;/b&gt;&lt;/i&gt;" style="text;html=1;strokeColor=none;fillColor=none;align=left;verticalAlign=middle;whiteSpace=wrap;rounded=0;" vertex="1" parent="LJeS2vGAnbKSU5zuG8RX-1">
          <mxGeometry x="264.13" y="435.21" width="104" height="20" as="geometry" />
        </mxCell>
        <mxCell id="12MDwx4VJmUt7la8ImGG-12" value="&lt;font color=&quot;#ffffff&quot;&gt;Edit&lt;/font&gt;" style="rounded=0;whiteSpace=wrap;html=1;strokeColor=#666666;fillColor=#666666;" vertex="1" parent="LJeS2vGAnbKSU5zuG8RX-1">
          <mxGeometry x="257.13" y="460" width="65" height="28" as="geometry" />
        </mxCell>
        <mxCell id="12MDwx4VJmUt7la8ImGG-13" value="&lt;font color=&quot;#ffffff&quot;&gt;Delete&lt;/font&gt;" style="rounded=0;whiteSpace=wrap;html=1;strokeColor=#666666;fillColor=#666666;" vertex="1" parent="LJeS2vGAnbKSU5zuG8RX-1">
          <mxGeometry x="330.13" y="460" width="65" height="28" as="geometry" />
        </mxCell>
        <mxCell id="12MDwx4VJmUt7la8ImGG-14" value="&lt;span&gt;&lt;font style=&quot;font-size: 8px&quot;&gt;What is on your mind now?&lt;/font&gt;&lt;/span&gt;" style="text;html=1;strokeColor=none;fillColor=none;align=left;verticalAlign=middle;whiteSpace=wrap;rounded=0;" vertex="1" parent="LJeS2vGAnbKSU5zuG8RX-1">
          <mxGeometry x="256.13" y="328" width="151.87" height="20" as="geometry" />
        </mxCell>
        <mxCell id="12MDwx4VJmUt7la8ImGG-16" value="" style="rounded=0;whiteSpace=wrap;html=1;fillColor=#666666;strokeColor=#666666;" vertex="1" parent="LJeS2vGAnbKSU5zuG8RX-1">
          <mxGeometry x="257" y="565" width="225" height="38" as="geometry" />
        </mxCell>
        <mxCell id="12MDwx4VJmUt7la8ImGG-20" value="&lt;font color=&quot;#ffffff&quot; size=&quot;1&quot;&gt;&lt;b&gt;Private Media&lt;/b&gt;&lt;/font&gt;" style="text;html=1;strokeColor=none;fillColor=none;align=center;verticalAlign=middle;whiteSpace=wrap;rounded=0;" vertex="1" parent="LJeS2vGAnbKSU5zuG8RX-1">
          <mxGeometry x="331" y="573.75" width="98" height="20" as="geometry" />
        </mxCell>
        <mxCell id="12MDwx4VJmUt7la8ImGG-22" value="" style="pointerEvents=1;shadow=0;dashed=0;html=1;strokeColor=none;fillColor=#505050;labelPosition=center;verticalLabelPosition=bottom;verticalAlign=top;outlineConnect=0;align=center;shape=mxgraph.office.concepts.home;" vertex="1" parent="LJeS2vGAnbKSU5zuG8RX-1">
          <mxGeometry x="281.63" y="281" width="16" height="9" as="geometry" />
        </mxCell>
        <mxCell id="12MDwx4VJmUt7la8ImGG-23" value="&lt;font style=&quot;font-size: 8px&quot;&gt;Address&lt;/font&gt;" style="text;html=1;strokeColor=none;fillColor=none;align=center;verticalAlign=middle;whiteSpace=wrap;rounded=0;" vertex="1" parent="LJeS2vGAnbKSU5zuG8RX-1">
          <mxGeometry x="314.26" y="274" width="4.87" height="20" as="geometry" />
        </mxCell>
        <mxCell id="12MDwx4VJmUt7la8ImGG-24" value="" style="shape=image;html=1;verticalAlign=top;verticalLabelPosition=bottom;labelBackgroundColor=#ffffff;imageAspect=0;aspect=fixed;image=https://cdn0.iconfinder.com/data/icons/iconoteka-stroke/24/iconoteka_cake__birthday_b_s-128.png;strokeColor=#666666;strokeWidth=1;fillColor=#FFFFFF;" vertex="1" parent="LJeS2vGAnbKSU5zuG8RX-1">
          <mxGeometry x="282.13" y="299" width="15" height="15" as="geometry" />
        </mxCell>
        <mxCell id="12MDwx4VJmUt7la8ImGG-25" value="&lt;font style=&quot;font-size: 8px&quot;&gt;Birthday&lt;/font&gt;" style="text;html=1;strokeColor=none;fillColor=none;align=center;verticalAlign=middle;whiteSpace=wrap;rounded=0;" vertex="1" parent="LJeS2vGAnbKSU5zuG8RX-1">
          <mxGeometry x="313.7" y="296.5" width="4.87" height="20" as="geometry" />
        </mxCell>
        <mxCell id="12MDwx4VJmUt7la8ImGG-26" value="" style="verticalLabelPosition=bottom;html=1;verticalAlign=top;align=center;strokeColor=none;shape=mxgraph.azure.user;fillColor=#666666;" vertex="1" parent="LJeS2vGAnbKSU5zuG8RX-1">
          <mxGeometry x="282.13" y="261" width="16" height="13" as="geometry" />
        </mxCell>
        <mxCell id="12MDwx4VJmUt7la8ImGG-27" value="&lt;font style=&quot;font-size: 8px&quot;&gt;Username&lt;/font&gt;" style="text;html=1;strokeColor=none;fillColor=none;align=center;verticalAlign=middle;whiteSpace=wrap;rounded=0;" vertex="1" parent="LJeS2vGAnbKSU5zuG8RX-1">
          <mxGeometry x="317.26" y="257.5" width="4.87" height="20" as="geometry" />
        </mxCell>
        <mxCell id="I0PKyR0qiHEoSiYnGHLm-2" value="" style="rounded=1;whiteSpace=wrap;html=1;strokeWidth=1;strokeColor=#E6E6E6;" vertex="1" parent="LJeS2vGAnbKSU5zuG8RX-1">
          <mxGeometry x="259" y="504" width="216.56" height="52" as="geometry" />
        </mxCell>
        <mxCell id="I0PKyR0qiHEoSiYnGHLm-5" value="&lt;font style=&quot;font-size: 9px&quot;&gt;Events:&lt;/font&gt;" style="text;html=1;strokeColor=none;fillColor=none;align=center;verticalAlign=middle;whiteSpace=wrap;rounded=0;" vertex="1" parent="LJeS2vGAnbKSU5zuG8RX-1">
          <mxGeometry x="349.46999999999997" y="511" width="40" height="20" as="geometry" />
        </mxCell>
        <mxCell id="I0PKyR0qiHEoSiYnGHLm-6" value="&lt;font style=&quot;font-size: 9px&quot;&gt;Halloween Night&lt;/font&gt;" style="text;html=1;strokeColor=none;fillColor=none;align=center;verticalAlign=middle;whiteSpace=wrap;rounded=0;" vertex="1" parent="LJeS2vGAnbKSU5zuG8RX-1">
          <mxGeometry x="317.26" y="527" width="104.43" height="20" as="geometry" />
        </mxCell>
        <mxCell id="s8KKmqEsCXQR8CbfkZeD-0" value="" style="strokeColor=#999999;verticalLabelPosition=bottom;shadow=0;dashed=0;verticalAlign=top;strokeWidth=2;html=1;shape=mxgraph.mockup.misc.copyrightIcon;fillColor=#FFFFFF;" vertex="1" parent="LJeS2vGAnbKSU5zuG8RX-1">
          <mxGeometry x="329.09999999999997" y="577.88" width="11.81" height="12.25" as="geometry" />
        </mxCell>
      </root>
    </mxGraphModel>
  </diagram>
  <diagram id="YF7DvPAru-PeN6YWwg0e" name="Page-2">
    <mxGraphModel dx="1422" dy="737" grid="0" gridSize="10" guides="1" tooltips="1" connect="1" arrows="1" fold="1" page="1" pageScale="1" pageWidth="700" pageHeight="1000" math="0" shadow="0">
      <root>
        <mxCell id="u520doBv4g-hJvvIHfe--0" />
        <mxCell id="u520doBv4g-hJvvIHfe--1" parent="u520doBv4g-hJvvIHfe--0" />
        <mxCell id="u520doBv4g-hJvvIHfe--29" value="What is on your mind now?" style="rounded=0;whiteSpace=wrap;html=1;fillColor=#FFFFFF;strokeColor=#666666;align=left;" vertex="1" parent="u520doBv4g-hJvvIHfe--1">
          <mxGeometry x="251" y="207" width="278" height="91" as="geometry" />
        </mxCell>
        <mxCell id="u520doBv4g-hJvvIHfe--2" value="" style="whiteSpace=wrap;html=1;aspect=fixed;fillColor=#808080;strokeColor=#FFFFFF;" vertex="1" parent="u520doBv4g-hJvvIHfe--1">
          <mxGeometry x="17" y="207" width="220" height="220" as="geometry" />
        </mxCell>
        <mxCell id="u520doBv4g-hJvvIHfe--5" value="" style="whiteSpace=wrap;html=1;aspect=fixed;fillColor=#FFFFFF;strokeColor=#FFFFFF;" vertex="1" parent="u520doBv4g-hJvvIHfe--1">
          <mxGeometry x="57" y="224" width="140" height="140" as="geometry" />
        </mxCell>
        <mxCell id="u520doBv4g-hJvvIHfe--3" value="" style="whiteSpace=wrap;html=1;aspect=fixed;fillColor=#808080;strokeColor=#FFFFFF;" vertex="1" parent="u520doBv4g-hJvvIHfe--1">
          <mxGeometry x="541" y="207" width="142" height="142" as="geometry" />
        </mxCell>
        <mxCell id="u520doBv4g-hJvvIHfe--4" value="" style="verticalLabelPosition=bottom;html=1;verticalAlign=top;align=center;strokeColor=none;shape=mxgraph.azure.user;fillColor=#FFCE9F;" vertex="1" parent="u520doBv4g-hJvvIHfe--1">
          <mxGeometry x="103.25" y="255" width="47.5" height="50" as="geometry" />
        </mxCell>
        <mxCell id="u520doBv4g-hJvvIHfe--6" value="Edit Profile" style="text;html=1;strokeColor=none;fillColor=none;align=center;verticalAlign=middle;whiteSpace=wrap;rounded=0;" vertex="1" parent="u520doBv4g-hJvvIHfe--1">
          <mxGeometry x="97" y="232" width="68" height="20" as="geometry" />
        </mxCell>
        <mxCell id="u520doBv4g-hJvvIHfe--7" value="" style="shape=image;html=1;verticalAlign=top;verticalLabelPosition=bottom;labelBackgroundColor=#ffffff;imageAspect=0;aspect=fixed;image=https://cdn4.iconfinder.com/data/icons/48-bubbles/48/16.Pen-128.png;strokeColor=#FF6666;fillColor=#FFCE9F;" vertex="1" parent="u520doBv4g-hJvvIHfe--1">
          <mxGeometry x="81" y="235" width="14" height="14" as="geometry" />
        </mxCell>
        <mxCell id="u520doBv4g-hJvvIHfe--9" value="" style="shape=image;verticalLabelPosition=bottom;labelBackgroundColor=#ffffff;verticalAlign=top;aspect=fixed;imageAspect=0;image=data:image/png,iVBORw0KGgoAAAANSUhEUgAAAL0AAABKCAYAAADuQFWRAAAF0ElEQVR4Ae2dv2sbSRTH98/YVuDG4MIuDHbhJviKE7gRpBFcYVIZc5Wr4C6oFMYkKkIw6aQi4MLFqnMVkAvBqgjIxUGMUKHChSAqVFzxPWa1K89MtPJ6IpGbme+C0P6Yt/ve931m9s3Y2AG4UQHPFAg8i5fhUgEQekLgnQKE3ruUM2BCTwa8U4DQe5dyBkzoyYB3ChB671LOgAk9GfBOgd8H/V0NwesmRsskL9JmmT2vUYEFChSGftSqIHjXWXALoPMuyL220ECcLAJ0kTaTGM33t/ie+yBeoAKqAvZD/62B/fAU0VgNjEdUIE8B+6HPi4znqUCOAmuCfop+6wzlrRBBECDcKuOs1cdUdiIpXRqIpHalP8/QvJdaFWkzbKIS1CAXXtP7Js6ONhEGAYKNMk4/x3h6Eai+BRv7qJxcIZ7IznHfZQXWAv3oSxXh3jmi4Qzg6fAWtaMSqi2p8hZAByGqn2KM/xUSTzFqn89KlcdU8iJtdOiH16huVHHVSzF/jHH1V4jy5/TZvTp2ts9xmz1jMkL/20jtkC5nnLEV/4WzZCIrRs68z3ySG6O+HaJ2p6krYAulEVkALR8nzceITgJUWumaTpE2GvTxxQ5efZI6l7jv13ME23XEYr9bQyigfxr6NUd56LoCLxvp30YYj8c/faK30upNAmEFzaEm3fQWZ4F0XgC9YMlSQDtfJSrSRoF+hObrvI6Zdbgp4vdVbG5sonzSQHRP+rVMOX/4Mujno7mqi7Jk+T+Afv6mUN1Uj6Zj9Nt1VLdClI6vueSpquP00eqhx6+VN9fHz5c3ShtlpAeSN8Xf0Qtq9D4af4SodZ3OM4OTFFgD9IA+kcVjB/WjEGW51k7q9RIqF53lE9nwmTYa9BAT2bCEN2LFJplHTzEe9RHdaXV+KsJ0eI3TsIyrfyRVuOu0AmuBXij2vV1LSodlS5Y7Fx1laXPRkuWzbXToxcMfItSO91FKJ92lvQpOv6TQdxt4lS6lCt9Ke29Q/8q63mnKteAKQ6/Z8ZAKWKsAobc2dXTcVAFCb6oc7axVgNBbmzo6bqoAoTdVjnbWKkDorU0dHTdVgNCbKkc7axUg9Namjo6bKkDoTZWjnbUKEHprU0fHTRUg9KbK0c5aBQi9tamj46YKEHpT5WhnrQKE3trU0XFTBQi9qXK0s1YBQm9t6ui4qQKE3lQ52lmrAKG3NnV03FQBQm+qHO2sVYDQW5s6Om6qAKE3VY521ipA6K1NHR03VYDQmypHO2sVIPTWpo6OmypQCPrdg0P49DEVk3Z2KEDoF3RoO1JHL00VIPSE3pQda+0IPaG3Fl5Txwk9oTdlx1o7C6Fv4wETdD+sb3JtbTbpeCEFLIR+fbBnK1SFlGMjaxVYEfRtPEx6uIwGMyEGbeweiBF5gBupfLgZiD8dP4P2ZjBBN07bJ1bS6P2hhx+DHrryv7lM7ils5fvOnttVbtPDZfZMcR89NcLP7HrOt27CY7cUWB30Qpc5mDqcGegy9AAkAC/FP3LN7FNYsw4yAz3rFBr0AH7EH9OfI3xMOkpmJ3ey5B7S87JRfdG3WylmNLoCK4ReHdXVEXkx9BmcCXjJ6C7eEIfYFfsaoMmbIanjdejV54rOk933J+i1N88i4MU5bm4r4DT0SeeR8pd1hjzYs/OSCXcdVGDN0GclSVbuqOWNAuEaRvrdaCCVPrO3TQb2sm8H88yQJAXWCP0hkjp9/rABurmlR1rSyDX9CsqbWYk1d0BMIgotdcoW3HdPgRVBX3wUXTbCrvRaMhlW630x8s8nyzkrN8IHbm4r4Db02ttCvHmeVnryO6rbKWd07kJ/cAixeqNsWfm0ZJTnSK8o5uSB09CblktOZppBzRUg9AtG/bk63HFSgULQOxk5g/JWAULvber9DZzQ+5t7byMn9N6m3t/ACb2/ufc2ckLvber9DZzQ+5t7byMn9N6m3t/ACb2/ufc2ckLvber9DZzQ+5t7byP/D8Pog7I/TMUoAAAAAElFTkSuQmCC;" vertex="1" parent="u520doBv4g-hJvvIHfe--1">
          <mxGeometry x="57" y="368" width="139" height="54.42" as="geometry" />
        </mxCell>
        <mxCell id="u520doBv4g-hJvvIHfe--10" value="" style="shape=image;verticalLabelPosition=bottom;labelBackgroundColor=#ffffff;verticalAlign=top;aspect=fixed;imageAspect=0;image=data:image/png,iVBORw0KGgoAAAANSUhEUgAAAHQAAABTCAYAAABOMyOpAAAGZ0lEQVR4Ae2cv2vjSBTH9WdMa0hj2CLu1mUMW0RwxRlSrCFFcGXMFotJEcw2QaQIJsXhajEpDpziwCkCSnHgNAdKEXCKBacIyEUKFSlUpFCR4nvMSGP98sXZleUocy8QIsvz630/ek8zgfc00I9SCmhKWUPGgIAq9hAQUAKqmAKKmUMeSkAVU0Axc8hDCahiCihmDnkoAVVMAcXMIQ8loIopoJg55KEEVDEFFDOHPJSAKqaAYuaQhxJQxRRQzJw391DnrA5N01K/9TNHManXY04xgB6YcF03/uutRwB/Fhdmq47hwzrnzGeuYgA9tPKx7rWjPploawT0tXK92E6E3P8A6p43oe2N4CZGmBxXUDmeBHddWMdNVDd42GYofzZgziIdrg1ohxbsvw00PjAR2ksfm+j9E4z6o48ai4d8P9x7mJ51oAd9tI0q6q0BJk98bBfmFwb2xUytLTLzm1wW20Nd7jk6BvcRbbwxuqyC3i2/52FyVEX1wIQjQrQH57KLKutiLEM2B8pKqB+NwzYXHVRYG6Z8Uh6GqCc99LaHymYX48dg7icH0x8O/GF9oKWvBDRCxr9cvCmS4c/D+IBBP7Xn/byrLtj2AOKOAN4J4YlWNoa/a2hfBLQEUAPxoD5Bb1ODcR0MuwjojQHGgUro8xUU+6LYHsq1uzbAPgUA4WG8r2G+A+awFuyQ+b1Ym50h4ntmB8OdJUC59//RQHmjDL3Vh3n3PsgWHyi4NwUhVnhkEyMZBgXQpPclPIi3+SWgwTiei+llT7x/S3sjPzIkpijSx3cAFLC/18QmyOGbpP1x8B7jexP+jq2hf/eCpFmBzoeeov+JwbiZ3yjkRTGALjuH3g+gb3bQaTF0r+Ruh+vpb4rYVhfmLLj/5MK+HmMiI+RrgMKCwSroXslOaVbewwhtJjdotClKKxTcWbwpirwDRTsXoz0N2mYP8rASDuhictoOjxesjNpeD5Zk8yqggH3RgR4cfZrnDnDTR00eWTQNsaMOHVtC+ekqXwXePOTma97/b3QCqhhzAkpAFVNAMXPIQwmoYgooZg55KAFVTAHFzCEPJaCKKaCYOeShBFQxBRQzhzyUgCqmgGLmkIcSUMUUUMwc8lACqpgCiplDHkpAFVNAMXPIQwmoYgooZg55KAFVTAHFzMnHQ0V63pIkoncjZCJTreDrJqBLARFQgDx06WOSVwPy0KXKkocu9FDvbojOb2UwnnHNytD3h5iKAhTAKotjiHm2eHGMIK3/0UJvr4qSyPRmKG810b0MU/yTPKPrZB90dM5M9KPZ3vBgXxhobkVtMYNEYD9Lbp49Ph+cJy0nUyHnX670Yj0e+jBCg1XRvQyKTngOxkc6SrvDSK0EmXsZ2PcrxTG2ddR3DIxnfs0jj6f9tTTUT+0gSdiDO5tgKjPAk1I+mmgzhsafQftnF9ZJHSUWSd8H4NyOMX0M8lE9G4OdMP0xVgNCjs8LcLD1bBLXAnRyUgFLla7xn1q/cMWKimNokXR9IaaD0a4PVGr70l/nr8aC9H2eDBwHmhwjVppHPIi1WOWWeBmeZO/Vfl4DUP8dlA5D6QIYqy+OAWBmorNdEgm7xpkVlLZZLKJ1qImaRvFvk+9QD/ZlH+2dmqiNVPpY8xODIw9sHGCkRkR84Fw+FQdoLsUxQs28mYXBvo4Sq8G4jqb1h21eA9Q+1aFt92DJkMtDMK9XGAGK+wFqMsTGqriEc+V1tQagwPKQ65u3+uIYadm8yza03VGizI3fToTcVOUy7mEy5C6KNn6kiQGFjcE2E3WQrMN4naX0ilZ7Zy1AkdwUic2GHhaQkjatvDiGHDj4K+c9iFRSiTYRm6LI5u3ZxeR7M7Yp4oBYawTnmXf0K5fVGIt7KC/Qct4E+2agy2QRrehE+V2vByhf/8yE8Tm61Q+PLaF5qy+OYX6VR5b0cSmcN7xKH1umMA+lhwJ4mqAfsaNxbMG56qaAwhujw49KKY8P58rjKh+geaz03Y2ZKFG3pvUT0LyE5q+PaBHJvOZJjEtAE4Ks5KNnY7jLUD1JV1VayfgvDEJAXxDn57/yd8GaVoK+L/8d+POjZOlBQLOoV8C+BLSAULIsiYBmUa+AfQloAaFkWRIBzaJeAfsS0AJCybIkAppFvQL2JaAFhJJlSQQ0i3oF7EtACwgly5IIaBb1CtiXgBYQSpYl/QsORKQrfcbNhgAAAABJRU5ErkJggg==;" vertex="1" parent="u520doBv4g-hJvvIHfe--1">
          <mxGeometry x="558.9999755859375" y="226.99997558593748" width="116" height="83" as="geometry" />
        </mxCell>
        <mxCell id="u520doBv4g-hJvvIHfe--19" value="" style="rounded=0;whiteSpace=wrap;html=1;strokeColor=#FFFFFF;fillColor=#666666;" vertex="1" parent="u520doBv4g-hJvvIHfe--1">
          <mxGeometry x="11" y="104" width="684" height="60" as="geometry" />
        </mxCell>
        <mxCell id="u520doBv4g-hJvvIHfe--20" value="" style="shape=mxgraph.cisco.buildings.telecommuter_house;html=1;pointerEvents=1;dashed=0;fillColor=#036897;strokeColor=#ffffff;strokeWidth=2;verticalLabelPosition=bottom;verticalAlign=top;align=center;outlineConnect=0;" vertex="1" parent="u520doBv4g-hJvvIHfe--1">
          <mxGeometry x="27" y="120" width="28" height="28" as="geometry" />
        </mxCell>
        <mxCell id="u520doBv4g-hJvvIHfe--21" value="&lt;font color=&quot;#ffffff&quot; style=&quot;font-size: 14px&quot;&gt;&lt;b&gt;Private Media&lt;/b&gt;&lt;/font&gt;" style="text;html=1;strokeColor=none;fillColor=none;align=center;verticalAlign=middle;whiteSpace=wrap;rounded=0;" vertex="1" parent="u520doBv4g-hJvvIHfe--1">
          <mxGeometry x="63" y="124" width="107" height="20" as="geometry" />
        </mxCell>
        <mxCell id="u520doBv4g-hJvvIHfe--22" value="" style="shape=image;html=1;verticalAlign=top;verticalLabelPosition=bottom;labelBackgroundColor=#ffffff;imageAspect=0;aspect=fixed;image=https://cdn4.iconfinder.com/data/icons/miu/24/common-logout-signout-exit-glyph-128.png;strokeColor=#FFFFFF;fillColor=#666666;" vertex="1" parent="u520doBv4g-hJvvIHfe--1">
          <mxGeometry x="568" y="120" width="31" height="31" as="geometry" />
        </mxCell>
        <mxCell id="u520doBv4g-hJvvIHfe--25" value="&lt;font color=&quot;#ffffff&quot; style=&quot;font-size: 14px&quot;&gt;&lt;b&gt;Logout&lt;/b&gt;&lt;/font&gt;" style="text;html=1;strokeColor=none;fillColor=none;align=center;verticalAlign=middle;whiteSpace=wrap;rounded=0;" vertex="1" parent="u520doBv4g-hJvvIHfe--1">
          <mxGeometry x="578" y="124" width="107" height="20" as="geometry" />
        </mxCell>
        <mxCell id="u520doBv4g-hJvvIHfe--30" value="&lt;font color=&quot;#ffffff&quot;&gt;Post&lt;/font&gt;" style="rounded=0;whiteSpace=wrap;html=1;strokeColor=#666666;fillColor=#666666;" vertex="1" parent="u520doBv4g-hJvvIHfe--1">
          <mxGeometry x="253" y="305" width="78" height="34" as="geometry" />
        </mxCell>
        <mxCell id="u520doBv4g-hJvvIHfe--32" value="" style="rounded=0;whiteSpace=wrap;html=1;strokeColor=#666666;fillColor=#FFFFFF;" vertex="1" parent="u520doBv4g-hJvvIHfe--1">
          <mxGeometry x="251" y="351" width="280" height="86" as="geometry" />
        </mxCell>
        <mxCell id="u520doBv4g-hJvvIHfe--33" value="&lt;font color=&quot;#b3b3b3&quot;&gt;Username&lt;/font&gt;" style="text;html=1;strokeColor=none;fillColor=none;align=center;verticalAlign=middle;whiteSpace=wrap;rounded=0;" vertex="1" parent="u520doBv4g-hJvvIHfe--1">
          <mxGeometry x="259" y="357" width="55" height="20" as="geometry" />
        </mxCell>
        <mxCell id="u520doBv4g-hJvvIHfe--34" value="&lt;font color=&quot;#b3b3b3&quot;&gt;Date&lt;/font&gt;" style="text;html=1;strokeColor=none;fillColor=none;align=center;verticalAlign=middle;whiteSpace=wrap;rounded=0;" vertex="1" parent="u520doBv4g-hJvvIHfe--1">
          <mxGeometry x="456" y="354" width="55" height="20" as="geometry" />
        </mxCell>
        <mxCell id="u520doBv4g-hJvvIHfe--35" value="&lt;i&gt;&lt;b&gt;This is anew post&lt;/b&gt;&lt;/i&gt;" style="text;html=1;strokeColor=none;fillColor=none;align=left;verticalAlign=middle;whiteSpace=wrap;rounded=0;" vertex="1" parent="u520doBv4g-hJvvIHfe--1">
          <mxGeometry x="259" y="385.21" width="104" height="20" as="geometry" />
        </mxCell>
        <mxCell id="u520doBv4g-hJvvIHfe--36" value="&lt;font color=&quot;#ffffff&quot;&gt;Edit&lt;/font&gt;" style="rounded=0;whiteSpace=wrap;html=1;strokeColor=#666666;fillColor=#666666;" vertex="1" parent="u520doBv4g-hJvvIHfe--1">
          <mxGeometry x="252" y="409" width="65" height="28" as="geometry" />
        </mxCell>
        <mxCell id="u520doBv4g-hJvvIHfe--37" value="&lt;font color=&quot;#ffffff&quot;&gt;Delete&lt;/font&gt;" style="rounded=0;whiteSpace=wrap;html=1;strokeColor=#666666;fillColor=#666666;" vertex="1" parent="u520doBv4g-hJvvIHfe--1">
          <mxGeometry x="325" y="409" width="65" height="28" as="geometry" />
        </mxCell>
        <mxCell id="u520doBv4g-hJvvIHfe--38" value="" style="rounded=0;whiteSpace=wrap;html=1;strokeColor=#666666;fillColor=#FFFFFF;" vertex="1" parent="u520doBv4g-hJvvIHfe--1">
          <mxGeometry x="251" y="449" width="280" height="86" as="geometry" />
        </mxCell>
        <mxCell id="u520doBv4g-hJvvIHfe--39" value="&lt;font color=&quot;#b3b3b3&quot;&gt;Username&lt;/font&gt;" style="text;html=1;strokeColor=none;fillColor=none;align=center;verticalAlign=middle;whiteSpace=wrap;rounded=0;" vertex="1" parent="u520doBv4g-hJvvIHfe--1">
          <mxGeometry x="259" y="455" width="55" height="20" as="geometry" />
        </mxCell>
        <mxCell id="u520doBv4g-hJvvIHfe--40" value="&lt;font color=&quot;#b3b3b3&quot;&gt;Date&lt;/font&gt;" style="text;html=1;strokeColor=none;fillColor=none;align=center;verticalAlign=middle;whiteSpace=wrap;rounded=0;" vertex="1" parent="u520doBv4g-hJvvIHfe--1">
          <mxGeometry x="456" y="452" width="55" height="20" as="geometry" />
        </mxCell>
        <mxCell id="u520doBv4g-hJvvIHfe--41" value="&lt;i&gt;&lt;b&gt;This is anew post&lt;/b&gt;&lt;/i&gt;" style="text;html=1;strokeColor=none;fillColor=none;align=left;verticalAlign=middle;whiteSpace=wrap;rounded=0;" vertex="1" parent="u520doBv4g-hJvvIHfe--1">
          <mxGeometry x="259" y="483.21" width="104" height="20" as="geometry" />
        </mxCell>
        <mxCell id="u520doBv4g-hJvvIHfe--42" value="&lt;font color=&quot;#ffffff&quot;&gt;Edit&lt;/font&gt;" style="rounded=0;whiteSpace=wrap;html=1;strokeColor=#666666;fillColor=#666666;" vertex="1" parent="u520doBv4g-hJvvIHfe--1">
          <mxGeometry x="252" y="507" width="65" height="28" as="geometry" />
        </mxCell>
        <mxCell id="u520doBv4g-hJvvIHfe--43" value="&lt;font color=&quot;#ffffff&quot;&gt;Delete&lt;/font&gt;" style="rounded=0;whiteSpace=wrap;html=1;strokeColor=#666666;fillColor=#666666;" vertex="1" parent="u520doBv4g-hJvvIHfe--1">
          <mxGeometry x="325" y="507" width="65" height="28" as="geometry" />
        </mxCell>
        <mxCell id="RAClDgZrMarh7rDToxYc-6" value="" style="pointerEvents=1;shadow=0;dashed=0;html=1;strokeColor=none;fillColor=#505050;labelPosition=center;verticalLabelPosition=bottom;verticalAlign=top;outlineConnect=0;align=center;shape=mxgraph.office.concepts.home;" vertex="1" parent="u520doBv4g-hJvvIHfe--1">
          <mxGeometry x="59.629999999999995" y="329" width="16" height="9" as="geometry" />
        </mxCell>
        <mxCell id="RAClDgZrMarh7rDToxYc-7" value="&lt;font style=&quot;font-size: 8px&quot;&gt;Address&lt;/font&gt;" style="text;html=1;strokeColor=none;fillColor=none;align=center;verticalAlign=middle;whiteSpace=wrap;rounded=0;" vertex="1" parent="u520doBv4g-hJvvIHfe--1">
          <mxGeometry x="92.25999999999999" y="322" width="4.87" height="20" as="geometry" />
        </mxCell>
        <mxCell id="RAClDgZrMarh7rDToxYc-8" value="" style="shape=image;html=1;verticalAlign=top;verticalLabelPosition=bottom;labelBackgroundColor=#ffffff;imageAspect=0;aspect=fixed;image=https://cdn0.iconfinder.com/data/icons/iconoteka-stroke/24/iconoteka_cake__birthday_b_s-128.png;strokeColor=#666666;strokeWidth=1;fillColor=#FFFFFF;" vertex="1" parent="u520doBv4g-hJvvIHfe--1">
          <mxGeometry x="60.129999999999995" y="347" width="15" height="15" as="geometry" />
        </mxCell>
        <mxCell id="RAClDgZrMarh7rDToxYc-9" value="&lt;font style=&quot;font-size: 8px&quot;&gt;Birthday&lt;/font&gt;" style="text;html=1;strokeColor=none;fillColor=none;align=center;verticalAlign=middle;whiteSpace=wrap;rounded=0;" vertex="1" parent="u520doBv4g-hJvvIHfe--1">
          <mxGeometry x="91.69999999999999" y="344.5" width="4.87" height="20" as="geometry" />
        </mxCell>
        <mxCell id="RAClDgZrMarh7rDToxYc-10" value="" style="verticalLabelPosition=bottom;html=1;verticalAlign=top;align=center;strokeColor=none;shape=mxgraph.azure.user;fillColor=#666666;" vertex="1" parent="u520doBv4g-hJvvIHfe--1">
          <mxGeometry x="60.129999999999995" y="309" width="16" height="13" as="geometry" />
        </mxCell>
        <mxCell id="RAClDgZrMarh7rDToxYc-11" value="&lt;font style=&quot;font-size: 8px&quot;&gt;Username&lt;/font&gt;" style="text;html=1;strokeColor=none;fillColor=none;align=center;verticalAlign=middle;whiteSpace=wrap;rounded=0;" vertex="1" parent="u520doBv4g-hJvvIHfe--1">
          <mxGeometry x="95.25999999999999" y="305.5" width="4.87" height="20" as="geometry" />
        </mxCell>
        <mxCell id="RAClDgZrMarh7rDToxYc-12" value="" style="rounded=0;whiteSpace=wrap;html=1;strokeColor=#FFFFFF;fillColor=#666666;" vertex="1" parent="u520doBv4g-hJvvIHfe--1">
          <mxGeometry x="11" y="592.75" width="684" height="60" as="geometry" />
        </mxCell>
        <mxCell id="RAClDgZrMarh7rDToxYc-14" value="&lt;font color=&quot;#ffffff&quot; style=&quot;font-size: 14px&quot;&gt;&lt;b&gt;Private Media&lt;/b&gt;&lt;/font&gt;" style="text;html=1;strokeColor=none;fillColor=none;align=center;verticalAlign=middle;whiteSpace=wrap;rounded=0;" vertex="1" parent="u520doBv4g-hJvvIHfe--1">
          <mxGeometry x="310" y="615" width="104" height="20" as="geometry" />
        </mxCell>
        <mxCell id="RAClDgZrMarh7rDToxYc-20" value="" style="strokeColor=#999999;verticalLabelPosition=bottom;shadow=0;dashed=0;verticalAlign=top;strokeWidth=2;html=1;shape=mxgraph.mockup.misc.copyrightIcon;fillColor=#FFFFFF;" vertex="1" parent="u520doBv4g-hJvvIHfe--1">
          <mxGeometry x="285" y="615" width="25" height="20.5" as="geometry" />
        </mxCell>
      </root>
    </mxGraphModel>
  </diagram>
  <diagram id="RioPwx5jkPbFZyTeW-lR" name="Page-1">
    <mxGraphModel dx="1422" dy="737" grid="0" gridSize="10" guides="1" tooltips="1" connect="1" arrows="1" fold="1" page="1" pageScale="1" pageWidth="700" pageHeight="1000" math="0" shadow="0">
      <root>
        <mxCell id="0" />
        <mxCell id="1" parent="0" />
        <mxCell id="tMLRBnB71gEwd3R3dqWk-1" value="" style="rounded=1;whiteSpace=wrap;html=1;" vertex="1" parent="1">
          <mxGeometry x="263" y="154" width="205" height="31" as="geometry" />
        </mxCell>
        <mxCell id="tMLRBnB71gEwd3R3dqWk-2" value="" style="rounded=1;whiteSpace=wrap;html=1;" vertex="1" parent="1">
          <mxGeometry x="266" y="204" width="205" height="31" as="geometry" />
        </mxCell>
        <mxCell id="tMLRBnB71gEwd3R3dqWk-4" value="" style="rounded=1;whiteSpace=wrap;html=1;strokeColor=#FF6666;fillColor=#FF4912;" vertex="1" parent="1">
          <mxGeometry x="268" y="261.5" width="205" height="31" as="geometry" />
        </mxCell>
        <mxCell id="tMLRBnB71gEwd3R3dqWk-5" value="&lt;font color=&quot;#ffffff&quot;&gt;Login&lt;/font&gt;" style="text;html=1;strokeColor=none;fillColor=none;align=center;verticalAlign=middle;whiteSpace=wrap;rounded=0;" vertex="1" parent="1">
          <mxGeometry x="348" y="267" width="40" height="20" as="geometry" />
        </mxCell>
        <mxCell id="tMLRBnB71gEwd3R3dqWk-6" value="Password" style="text;html=1;strokeColor=none;fillColor=none;align=center;verticalAlign=middle;whiteSpace=wrap;rounded=0;" vertex="1" parent="1">
          <mxGeometry x="278" y="210" width="40" height="20" as="geometry" />
        </mxCell>
        <mxCell id="tMLRBnB71gEwd3R3dqWk-7" value="Username" style="text;html=1;strokeColor=none;fillColor=none;align=center;verticalAlign=middle;whiteSpace=wrap;rounded=0;" vertex="1" parent="1">
          <mxGeometry x="278" y="159.5" width="40" height="20" as="geometry" />
        </mxCell>
        <mxCell id="tMLRBnB71gEwd3R3dqWk-8" value="&lt;font style=&quot;font-size: 14px&quot;&gt;&lt;b&gt;Private Media&lt;/b&gt;&lt;/font&gt;" style="text;html=1;strokeColor=none;fillColor=none;align=center;verticalAlign=middle;whiteSpace=wrap;rounded=0;" vertex="1" parent="1">
          <mxGeometry x="57" y="46" width="103" height="23" as="geometry" />
        </mxCell>
        <mxCell id="tMLRBnB71gEwd3R3dqWk-10" value="&lt;font style=&quot;font-size: 14px&quot;&gt;&lt;b&gt;Register&lt;/b&gt;&lt;/font&gt;" style="text;html=1;strokeColor=none;fillColor=none;align=center;verticalAlign=middle;whiteSpace=wrap;rounded=0;" vertex="1" parent="1">
          <mxGeometry x="559" y="41" width="103" height="23" as="geometry" />
        </mxCell>
        <mxCell id="tMLRBnB71gEwd3R3dqWk-12" value="" style="outlineConnect=0;dashed=0;verticalLabelPosition=bottom;verticalAlign=top;align=center;html=1;shape=mxgraph.aws3.data_encryption_key;fillColor=#7D7C7C;gradientColor=none;strokeColor=#FF6666;" vertex="1" parent="1">
          <mxGeometry x="266" y="315" width="19" height="22" as="geometry" />
        </mxCell>
        <mxCell id="tMLRBnB71gEwd3R3dqWk-13" value="" style="shape=image;html=1;verticalAlign=top;verticalLabelPosition=bottom;labelBackgroundColor=#ffffff;imageAspect=0;aspect=fixed;image=https://cdn0.iconfinder.com/data/icons/geosm-e-commerce/48/add-128.png;strokeColor=#FF6666;fillColor=#FF4912;" vertex="1" parent="1">
          <mxGeometry x="404" y="319" width="20" height="20" as="geometry" />
        </mxCell>
        <mxCell id="tMLRBnB71gEwd3R3dqWk-14" value="Reset Password" style="text;html=1;strokeColor=none;fillColor=none;align=center;verticalAlign=middle;whiteSpace=wrap;rounded=0;" vertex="1" parent="1">
          <mxGeometry x="297" y="316" width="40" height="20" as="geometry" />
        </mxCell>
        <mxCell id="tMLRBnB71gEwd3R3dqWk-15" value="Sign Up" style="text;html=1;strokeColor=none;fillColor=none;align=center;verticalAlign=middle;whiteSpace=wrap;rounded=0;" vertex="1" parent="1">
          <mxGeometry x="424" y="317" width="54" height="20" as="geometry" />
        </mxCell>
        <mxCell id="tMLRBnB71gEwd3R3dqWk-17" value="&lt;span style=&quot;font-family: &amp;#34;open sans&amp;#34; , sans-serif ; font-size: medium ; font-style: italic&quot;&gt;Private media lets you share your thoughts and experiences without having to worry about anyone snooping in your business.&lt;/span&gt;" style="text;html=1;strokeColor=none;fillColor=none;align=center;verticalAlign=middle;whiteSpace=wrap;rounded=0;" vertex="1" parent="1">
          <mxGeometry x="213" y="383" width="298.5" height="93" as="geometry" />
        </mxCell>
        <mxCell id="tMLRBnB71gEwd3R3dqWk-18" value="Background Img" style="text;html=1;strokeColor=none;fillColor=none;align=center;verticalAlign=middle;whiteSpace=wrap;rounded=0;rotation=-59;" vertex="1" parent="1">
          <mxGeometry x="124.18" y="237.07" width="97" height="20" as="geometry" />
        </mxCell>
        <mxCell id="tMLRBnB71gEwd3R3dqWk-19" value="Background Img" style="text;html=1;strokeColor=none;fillColor=none;align=center;verticalAlign=middle;whiteSpace=wrap;rounded=0;rotation=-59;" vertex="1" parent="1">
          <mxGeometry x="520" y="459" width="97" height="20" as="geometry" />
        </mxCell>
        <mxCell id="tMLRBnB71gEwd3R3dqWk-20" value="Background Img" style="text;html=1;strokeColor=none;fillColor=none;align=center;verticalAlign=middle;whiteSpace=wrap;rounded=0;rotation=-59;" vertex="1" parent="1">
          <mxGeometry x="66" y="439" width="97" height="20" as="geometry" />
        </mxCell>
        <mxCell id="tMLRBnB71gEwd3R3dqWk-21" value="Background Img" style="text;html=1;strokeColor=none;fillColor=none;align=center;verticalAlign=middle;whiteSpace=wrap;rounded=0;rotation=-59;" vertex="1" parent="1">
          <mxGeometry x="327" y="64" width="97" height="20" as="geometry" />
        </mxCell>
        <mxCell id="tMLRBnB71gEwd3R3dqWk-22" value="Background Img" style="text;html=1;strokeColor=none;fillColor=none;align=center;verticalAlign=middle;whiteSpace=wrap;rounded=0;rotation=-59;" vertex="1" parent="1">
          <mxGeometry x="526" y="217.07" width="97" height="20" as="geometry" />
        </mxCell>
      </root>
    </mxGraphModel>
  </diagram>
</mxfile>
